<?xml version="1.0" encoding="UTF-8" standalone="no"?>
<!-- Created with Inkscape (http://www.inkscape.org/) -->

<svg
   xmlns:osb="http://www.openswatchbook.org/uri/2009/osb"
   xmlns:dc="http://purl.org/dc/elements/1.1/"
   xmlns:cc="http://creativecommons.org/ns#"
   xmlns:rdf="http://www.w3.org/1999/02/22-rdf-syntax-ns#"
   xmlns:svg="http://www.w3.org/2000/svg"
   xmlns="http://www.w3.org/2000/svg"
   xmlns:sodipodi="http://sodipodi.sourceforge.net/DTD/sodipodi-0.dtd"
   xmlns:inkscape="http://www.inkscape.org/namespaces/inkscape"
   version="1.1"
   id="svg10"
   width="48"
   height="48"
   viewBox="0 0 48 48"
   sodipodi:docname="photo_2020-06-07_14-33-14.svg"
   inkscape:version="0.92.1 r15371">
  <metadata
     id="metadata16">
    <rdf:RDF>
      <cc:Work
         rdf:about="">
        <dc:format>image/svg+xml</dc:format>
        <dc:type
           rdf:resource="http://purl.org/dc/dcmitype/StillImage" />
        <dc:title></dc:title>
      </cc:Work>
    </rdf:RDF>
  </metadata>
  <defs
     id="defs14">
    <linearGradient
       id="linearGradient7173"
       osb:paint="solid">
      <stop
         style="stop-color:#425af6;stop-opacity:1;"
         offset="0"
         id="stop7171" />
    </linearGradient>
    <linearGradient
       id="linearGradient7123"
       osb:paint="solid">
      <stop
         style="stop-color:#425af6;stop-opacity:1;"
         offset="0"
         id="stop7121" />
    </linearGradient>
  </defs>
  <sodipodi:namedview
     pagecolor="#ffffff"
     bordercolor="#666666"
     borderopacity="1"
     objecttolerance="10"
     gridtolerance="10"
     guidetolerance="10"
     inkscape:pageopacity="0"
     inkscape:pageshadow="2"
     inkscape:window-width="1366"
     inkscape:window-height="705"
     id="namedview12"
     showgrid="false"
     inkscape:snap-grids="true"
     showguides="false"
     inkscape:zoom="4.1718524"
     inkscape:cx="-17.966253"
     inkscape:cy="11.978414"
     inkscape:window-x="-8"
     inkscape:window-y="-8"
     inkscape:window-maximized="1"
     inkscape:current-layer="svg10">
    <inkscape:grid
       type="xygrid"
       id="grid41" />
  </sodipodi:namedview>
  <g
     id="g7609"
     transform="matrix(1.3780688,0,0,1.3780688,72.802456,0.22697973)">
    <path
       style="fill:#44a3f0;stroke-width:0.09339031"
       d="m -44.658842,32.939439 c -0.57079,-0.168468 -1.968705,-1.572109 -2.631308,-2.642085 -0.131795,-0.212824 -0.332181,-0.492016 -0.445301,-0.620427 -0.113121,-0.128412 -0.387856,-0.548668 -0.610523,-0.933903 -0.222666,-0.385235 -0.563749,-0.952582 -0.75796,-1.26077 -0.533217,-0.846146 -1.458625,-2.710342 -1.713355,-3.451483 -0.338241,-0.984118 -1.060143,-3.872193 -1.174011,-4.696804 -0.05497,-0.398085 -0.138913,-1.059997 -0.186539,-1.470914 -0.04763,-0.410917 -0.129906,-0.973493 -0.182843,-1.250168 -0.187469,-0.979792 -0.04566,-6.8393478 0.211575,-8.7425946 0.07637,-0.5650114 0.191642,-1.479069 0.256171,-2.0312392 0.06453,-0.5521701 0.149883,-1.0039457 0.189678,-1.0039457 0.03979,0 0.123526,0.1575961 0.186071,0.3502136 0.265721,0.8183295 1.213415,2.5230454 1.752232,3.1519228 0.688935,0.8040877 1.833496,1.8443551 2.596215,2.3596441 0.31459,0.212536 0.598263,0.454916 0.630385,0.538623 0.03212,0.08371 0.0584,0.39159 0.0584,0.684185 0,0.639902 0.439717,1.643454 0.984135,2.246059 1.784066,1.974749 7.205554,3.801911 8.878253,2.992171 0.582704,-0.282081 0.941231,-0.793823 1.158079,-1.652976 0.114794,-0.454812 0.252733,-0.513764 0.327781,-0.140086 0.02837,0.141253 0.182149,0.521997 0.341732,0.846098 0.240916,0.489281 0.371131,0.63572 0.767365,0.862984 0.432262,0.247928 0.558036,0.273793 1.335278,0.274586 1.262032,0.0013 2.568777,-0.345108 4.465182,-1.183648 1.833189,-0.810587 3.074486,-1.73807 3.671406,-2.743234 0.241078,-0.405952 0.484462,-1.307633 0.484462,-1.794811 0,-0.512556 0.09546,-0.640745 0.909156,-1.220838 1.641544,-1.1702772 3.220991,-3.0820754 3.808473,-4.6098602 0.39539,-1.0282337 0.415404,-1.0675694 0.512625,-1.007483 0.05115,0.03161 0.09299,0.3434361 0.09299,0.6929466 0,0.3495106 0.04564,0.8618444 0.101418,1.1385196 0.171352,0.8499198 0.267054,2.0758079 0.371,4.752305 0.179523,4.622469 -0.0036,6.561062 -1.005654,10.646495 -0.494734,2.017045 -0.545555,2.161177 -1.267742,3.595409 -0.977799,1.941863 -2.510985,4.429918 -3.420112,5.550157 -0.814483,1.003619 -1.821788,1.781099 -2.307598,1.781099 -0.392369,0 -0.502878,-0.194698 -0.502878,-0.88598 0,-1.099245 0.563959,-2.91865 2.243862,-7.238976 1.79389,-4.613473 1.956848,-5.135217 1.958047,-6.269064 0.0011,-1.016456 -0.09347,-1.00756 -1.325914,0.12476 -0.580186,0.533052 -1.222971,1.093453 -1.42841,1.245335 -0.20544,0.151882 -0.604684,0.462108 -0.887208,0.689392 -0.731067,0.588126 -2.21594,1.533919 -3.195041,2.035092 -0.460709,0.235822 -0.860186,0.487488 -0.887726,0.559256 -0.06949,0.181083 0.239802,0.484805 0.87887,0.863046 1.818947,1.076569 2.180422,1.839172 1.412901,2.980787 -0.638232,0.949308 -1.16746,1.331326 -2.458299,1.774498 -2.542381,0.872853 -5.527741,1.034833 -8.124956,0.440846 -2.068725,-0.47312 -2.99656,-0.907591 -3.675838,-1.721261 -0.76778,-0.919682 -0.917982,-1.48695 -0.572844,-2.163476 0.175721,-0.344443 0.873792,-0.949433 1.400278,-1.213567 0.447391,-0.224453 1.120683,-0.785938 1.120683,-0.934582 0,-0.08391 -0.174435,-0.233614 -0.396909,-0.340634 -2.058498,-0.99023 -4.047198,-2.404342 -6.117767,-4.35018 -0.478687,-0.449851 -0.905604,-0.817911 -0.948705,-0.817911 -0.441023,0 -0.36225,1.431395 0.164465,2.988489 0.337004,0.996266 0.906447,2.523135 1.793731,4.809601 0.752808,1.939932 1.00671,2.645791 1.326922,3.688917 0.646602,2.106376 0.803387,3.362455 0.458645,3.674443 -0.189013,0.171054 -0.220485,0.173833 -0.623031,0.05502 z m 12.954403,-21.958084 c -0.06228,-0.06228 -0.113236,-0.164868 -0.113236,-0.227972 0,-0.203489 -0.285969,-0.40825 -0.570162,-0.40825 -0.217901,0 -0.318175,0.07038 -0.472192,0.33142 -0.22019,0.373193 -0.480692,0.399639 -0.529837,0.05379 -0.02124,-0.14947 0.0669,-0.321188 0.275143,-0.53604 0.265768,-0.2742018 0.366835,-0.3161191 0.76221,-0.3161191 0.381514,0 0.501294,0.045478 0.734807,0.2789921 0.214626,0.214626 0.272221,0.347629 0.24964,0.576498 -0.03228,0.327222 -0.161608,0.422448 -0.336373,0.247683 z m -7.242029,-0.04475 c -0.135482,-0.135482 -0.04849,-0.413878 0.227585,-0.728307 0.256502,-0.2921408 0.341625,-0.3301161 0.739957,-0.3301161 0.599421,0 1.024784,0.3329401 1.024784,0.8021191 0,0.430142 -0.286701,0.439297 -0.473445,0.01512 -0.212451,-0.482568 -0.813074,-0.46872 -1.068194,0.02463 -0.137434,0.265767 -0.315781,0.351464 -0.450687,0.216557 z m 7.765132,-3.9080893 c -0.654999,-0.5719801 -1.678728,-1.140272 -2.589612,-1.4375443 -1.664639,-0.5432647 -3.965069,0.033854 -5.548861,1.3920677 -0.557207,0.4778442 -0.716566,0.5558279 -0.715749,0.350257 8.41e-4,-0.2000912 0.392263,-0.5918529 1.12022,-1.1210613 0.868165,-0.6311369 1.263343,-0.8346674 2.134166,-1.0991718 1.328676,-0.403573 3.32582,-0.1088967 4.544002,0.6704622 0.817397,0.5229482 1.82035,1.3903037 1.82035,1.5742424 0,0.2834736 -0.124024,0.2300609 -0.764516,-0.3292519 z M -43.592037,4.4687281 c -0.332889,-0.3328889 -0.365083,-0.8692426 -0.08872,-1.4780812 0.162429,-0.3578385 0.212577,-0.3969088 0.509443,-0.3969088 0.465015,0 0.660986,0.3236393 0.658745,1.0878914 -0.0014,0.4845274 -0.03925,0.6216798 -0.226407,0.8209019 -0.292184,0.3110157 -0.517155,0.302101 -0.853059,-0.033803 z m 15.989611,0.054796 c -0.182686,-0.2201234 -0.367992,-0.862491 -0.320489,-1.110985 0.02532,-0.1324814 0.158988,-0.3761618 0.297028,-0.541512 0.461002,-0.552206 1.052184,-0.3150448 1.155778,0.4636572 0.107103,0.8050704 -0.17046,1.3136404 -0.716949,1.3136404 -0.171486,0 -0.358402,-0.05616 -0.415368,-0.1248006 z"
       id="path7613"
       inkscape:connector-curvature="0" />
    <path
       style="fill:#1a75cf;stroke-width:0.09339031"
       d="m -38.121521,29.214055 c -1.351812,-0.282043 -2.296468,-0.571078 -2.972107,-0.909369 -0.937259,-0.469285 -1.9276,-1.833906 -1.788972,-2.465077 0.08956,-0.407766 0.709516,-1.055276 1.392582,-1.454478 0.311734,-0.182186 0.779278,-0.512238 1.038989,-0.73345 l 0.472201,-0.402205 1.34891,0.408876 c 0.7419,0.224881 1.664102,0.457323 2.049337,0.516537 1.420848,0.218398 3.714801,-0.09353 5.271845,-0.716857 l 0.625515,-0.250412 0.390023,0.374154 c 0.214514,0.205783 0.684204,0.548568 1.043756,0.761743 0.810027,0.480258 0.978354,0.622589 1.239982,1.048478 0.331886,0.540261 0.280417,0.990422 -0.19292,1.687362 -0.516818,0.760959 -1.245508,1.256564 -2.406227,1.636553 -2.528735,0.827841 -5.111814,0.999112 -7.512914,0.498145 z m -0.730645,-18.378622 c -0.07604,-0.129141 0.105677,-0.462638 0.361897,-0.664181 0.371759,-0.2924257 0.832918,-0.2635251 1.16975,0.07331 0.150143,0.150142 0.272987,0.36027 0.272987,0.466951 0,0.281575 -0.129338,0.237661 -0.251243,-0.0853 -0.210522,-0.557736 -0.942493,-0.577897 -1.262935,-0.03479 -0.195804,0.331863 -0.224523,0.355989 -0.290456,0.244012 z m 5.585344,-0.02593 c -0.0802,-0.129763 0.176183,-0.514867 0.471658,-0.708469 0.477742,-0.3130287 1.349114,0.105561 1.350586,0.648791 6.54e-4,0.241963 -0.217086,0.140747 -0.281164,-0.130696 -0.05376,-0.227735 -0.384442,-0.456856 -0.663028,-0.459399 -0.200016,-0.0018 -0.642979,0.351962 -0.642979,0.513537 0,0.16964 -0.157879,0.261137 -0.235073,0.136236 z m 2.336355,-3.7330292 c -0.03175,-0.051365 -0.01321,-0.09339 0.04118,-0.09339 0.0544,0 0.0989,0.042026 0.0989,0.09339 0,0.051365 -0.01853,0.09339 -0.04118,0.09339 -0.02265,0 -0.06716,-0.042026 -0.0989,-0.09339 z m -8.731994,-0.076444 c 0,-0.1128674 0.17718,-0.2444581 0.241947,-0.1796921 0.02351,0.023506 -0.02132,0.095899 -0.0996,0.1608722 -0.08876,0.073662 -0.142343,0.080746 -0.142343,0.01882 z m 6.957578,-1.1389923 c -1.743596,-0.8549085 -3.303613,-0.8578632 -5.155556,-0.00976 -0.548308,0.251098 -0.599812,0.2617032 -0.378606,0.077957 0.637253,-0.5293362 2.421743,-0.9859911 3.386185,-0.8665315 0.916706,0.1135469 2.237965,0.5991841 2.811608,1.0334247 0.273298,0.2068833 0.145277,0.1615327 -0.663631,-0.2350855 z M -43.409173,4.460918 c -0.28702,-0.1677045 -0.398731,-0.6102592 -0.270054,-1.0698493 0.297139,-1.0612779 1.074118,-0.817751 1.056785,0.331226 -0.0102,0.6763735 -0.348958,0.9944125 -0.786731,0.7386233 z M -27.46083,4.415703 c -0.19791,-0.1979096 -0.368403,-0.7664132 -0.305276,-1.0179324 0.07991,-0.3183762 0.421007,-0.7106419 0.617946,-0.7106419 0.09527,0 0.264456,0.1155705 0.375963,0.2568234 0.165521,0.2096774 0.195379,0.3465636 0.162648,0.7456752 -0.05969,0.727859 -0.485941,1.091416 -0.851281,0.7260757 z"
       id="path7611"
       inkscape:connector-curvature="0" />
  </g>
</svg>
